# xmcd CD database file
#
# Track frame offsets:
#	150
#	16950
#	40575
#	57397
#
# Disc length: 1076 seconds
#
# Revision: 0
# Processed by: cddbd v1.5.1PL0 Copyright (c) Steve Scherf et al.
# Submitted via: CDex 1.51
#
DISCID=28043204
DTITLE=La'cryma Christi - CANNONBALL
DYEAR=2004
DGENRE=JPop
TTITLE0=CANNONBALL
TTITLE1=Hysteric Style
TTITLE2=CANNONBALL [unvocal version]
TTITLE3=Hysteric Style [unvocal version]
EXTD=YEAR: 2004
EXTT0=
EXTT1=
EXTT2=
EXTT3=
PLAYORDER=
